# xmcd
#
# Track frame offsets: 
#        150
#        18116
#        43405
#        67478
#        87194
#        104652
#        121247
#        140016
#        158726
#        171385
#        193014
#        210834
#        228483
#        248230
#        262143
#        274900
#
# Disc length: 3895 seconds
#
# Revision: 0
# Processed by: cddbd v1.5.2PL0 Copyright (c) Steve Scherf et al.
# Submitted via: ExactAudioCopyFreeDBPlugin 1.0
#
DISCID=f30f3510
DTITLE=Tremoloco - Salsipuedes
DYEAR=1900
DGENRE=Country
TTITLE0=Temo
TTITLE1=Western Sky
TTITLE2=Carolina Yes
TTITLE3=La Lechuza
TTITLE4=Claudine
TTITLE5=Crossing The Rio Grande
TTITLE6=La Gata
TTITLE7=Viejo
TTITLE8=Ridin' With Cliffie
TTITLE9=The Riverside
TTITLE10=Mission San Fernando
TTITLE11=Broken Wheel
TTITLE12=La Mexicana
TTITLE13=Salinas To San Antonio
TTITLE14=Union Station (Olvera Street)
TTITLE15=Harder
EXTD=
EXTT0=
EXTT1=
EXTT2=
EXTT3=
EXTT4=
EXTT5=
EXTT6=
EXTT7=
EXTT8=
EXTT9=
EXTT10=
EXTT11=
EXTT12=
EXTT13=
EXTT14=
EXTT15=
PLAYORDER=
